# xmcd
#
# Track frame offsets:
# 150
# 3088
# 23436
# 42775
# 61736
# 77891
# 82942
# 96151
# 115176
# 135142
# 139077
# 160535
# 164889
# 181968
# 203278
# 221052
# 239115
#
# Disc length: 3435 seconds
#
# Revision: 0
# Processed by: cddbd v1.5.2PL0 Copyright (c) Steve Scherf et al.
# Submitted via: Audion 3.0.2 (http://www.panic.com/audion/)
#
DISCID=cd0d6911
DTITLE=Educated Consumers - Write/Hear
DYEAR=1900
DGENRE=
TTITLE0=Write/Hear Intro
TTITLE1=Write/Hear
TTITLE2=In The Pocket
TTITLE3=Steal
TTITLE4=1 Hit Wonder
TTITLE5=Rap On
TTITLE6=Catch A Glimpse
TTITLE7=Dot, Dot, Dot
TTITLE8=Roaring Flood
TTITLE9=Tasteless
TTITLE10=Faceless
TTITLE11=Nameless
TTITLE12=Minor Celebrity
TTITLE13=Nothing Without
TTITLE14=My Best Move
TTITLE15=Loud and Clear
TTITLE16=Right They're
EXTD=
EXTT0=
EXTT1=
EXTT2=
EXTT3=
EXTT4=
EXTT5=
EXTT6=
EXTT7=
EXTT8=
EXTT9=
EXTT10=
EXTT11=
EXTT12=
EXTT13=
EXTT14=
EXTT15=
EXTT16=
PLAYORDER=
